{
  "accessors": [
    {
      "bufferView": 2,
      "componentType": 5126,
      "count": 30878,
      "max": [
        0.6076446175575256,
        0.2612684965133667,
        0.7219533920288086
      ],
      "min": [
        -0.5601198077201843,
        -0.5174009203910828,
        -0.7091137170791626
      ],
      "type": "VEC3"
    },
    {
      "bufferView": 2,
      "byteOffset": 370536,
      "componentType": 5126,
      "count": 30878,
      "max": [
        0.9998699426651001,
        0.9999702572822571,
        0.9996700882911682
      ],
      "min": [
        -0.9999820590019226,
        -0.9999969601631165,
        -0.999811589717865
      ],
      "type": "VEC3"
    },
    {
      "bufferView": 1,
      "componentType": 5126,
      "count": 30878,
      "max": [
        0.99815434217453,
        0.9999749660491943
      ],
      "min": [
        9.441189467906952e-05,
        0.00012338347733020782
      ],
      "type": "VEC2"
    },
    {
      "bufferView": 0,
      "componentType": 5125,
      "count": 150000,
      "type": "SCALAR"
    }
  ],
  "asset": {
    "extras": {
      "author": "Lior Azi (https://sketchfab.com/liorazi)",
      "license": "CC-BY-NC-4.0 (http://creativecommons.org/licenses/by-nc/4.0/)",
      "source": "https://sketchfab.com/3d-models/street-wooden-bench-f889c3adfc5945dcb10c1a594b35957b",
      "title": "Street Wooden Bench"
    },
    "generator": "Sketchfab-12.66.0",
    "version": "2.0"
  },
  "bufferViews": [
    {
      "buffer": 0,
      "byteLength": 600000,
      "name": "floatBufferViews",
      "target": 34963
    },
    {
      "buffer": 0,
      "byteLength": 247024,
      "byteOffset": 600000,
      "byteStride": 8,
      "name": "floatBufferViews",
      "target": 34962
    },
    {
      "buffer": 0,
      "byteLength": 741072,
      "byteOffset": 847024,
      "byteStride": 12,
      "name": "floatBufferViews",
      "target": 34962
    }
  ],
  "buffers": [
    {
      "byteLength": 1588096,
      "uri": "scene.bin"
    }
  ],
  "extensionsUsed": [
    "KHR_materials_unlit"
  ],
  "images": [
    {
      "uri": "textures/material_baseColor.png"
    }
  ],
  "materials": [
    {
      "extensions": {
        "KHR_materials_unlit": {}
      },
      "name": "material",
      "pbrMetallicRoughness": {
        "baseColorTexture": {
          "index": 0
        },
        "metallicFactor": 0.0
      }
    }
  ],
  "meshes": [
    {
      "name": "g0",
      "primitives": [
        {
          "attributes": {
            "NORMAL": 1,
            "POSITION": 0,
            "TEXCOORD_0": 2
          },
          "indices": 3,
          "material": 0,
          "mode": 4
        }
      ]
    }
  ],
  "nodes": [
    {
      "children": [
        1
      ],
      "matrix": [
        1.073888451807825,
        1.4602027378025607e-16,
        -0.6576168505852991,
        0.0,
        -0.6576168505852991,
        4.4095306534406685e-16,
        -1.073888451807825,
        0.0,
        1.0575285656736256e-16,
        1.2592443227767944,
        4.523028339874293e-16,
        0.0,
        0.00014544441364705563,
        1.3581270276147982e-16,
        0.013353962451219559,
        1.0
      ],
      "name": "Sketchfab_model"
    },
    {
      "children": [
        2
      ],
      "matrix": [
        1.0,
        0.0,
        0.0,
        0.0,
        0.0,
        2.220446049250313e-16,
        1.0,
        0.0,
        0.0,
        -1.0,
        2.220446049250313e-16,
        0.0,
        0.0,
        0.0,
        0.0,
        1.0
      ],
      "name": "USDRoot"
    },
    {
      "children": [
        3
      ],
      "name": "baked_mesh"
    },
    {
      "children": [
        4
      ],
      "name": "Geom"
    },
    {
      "mesh": 0,
      "name": "g0"
    }
  ],
  "samplers": [
    {
      "magFilter": 9729,
      "minFilter": 9987,
      "wrapS": 10497,
      "wrapT": 10497
    }
  ],
  "scene": 0,
  "scenes": [
    {
      "name": "Sketchfab_Scene",
      "nodes": [
        0
      ]
    }
  ],
  "textures": [
    {
      "sampler": 0,
      "source": 0
    }
  ]
}
